<svg width="32" height="32" viewBox="0 0 32 32" fill="none" xmlns="http://www.w3.org/2000/svg">
<path fill-rule="evenodd" clip-rule="evenodd" d="M32 0H0V32H32V0ZM19.7475 23.3923C19.5571 25.3515 17.9363 26.8444 16.0001 26.8444C14.0636 26.8444 12.4431 25.3515 12.2525 23.3923C12.1661 18.6842 10.35 14.7708 5.83811 12.0963C4.26476 10.949 3.8033 8.77548 4.77153 7.07049C5.73976 5.36554 7.8217 4.68507 9.58568 5.49679L12.2525 6.98047V13.7548C12.3643 15.8485 14.1107 17.3687 16.0001 17.379C18.0539 17.3901 19.5871 15.7782 19.7475 13.7548V6.98047L22.4144 5.49679C24.1784 4.68507 26.2604 5.36554 27.2285 7.07049C28.1966 8.77548 27.7354 10.949 26.1619 12.0963C22.0264 14.5403 19.7423 18.4 19.7475 23.3923ZM18.4921 9.53819C18.4921 8.1727 17.3772 7.06584 16.0014 7.06584C14.6259 7.06584 13.5108 8.1727 13.5108 9.53819V13.6778C13.5108 15.0431 14.6257 16.15 16.0013 16.15C17.377 16.15 18.4921 15.0431 18.4921 13.6778V9.53819ZM24.5194 23.2338L24.5097 23.241C24.3243 23.3793 24.1339 23.5213 23.9469 23.6716L23.9451 23.6697C23.0475 24.3841 22.102 25.3214 22.0444 26.8577H27.7155V25.546H24.0736C24.3382 25.0294 25.0536 24.5147 25.6635 24.1152C26.6319 23.4584 27.6465 22.744 27.6465 21.2325C27.6465 19.8497 26.6798 18.6667 24.9615 18.6667C23.0839 18.6667 22.1614 19.8267 22.1614 21.655H23.6363C23.6592 20.6122 24.131 20.0264 24.927 20.0264C25.6307 20.0264 26.022 20.5315 26.022 21.2805C26.022 22.114 25.3143 22.6414 24.5194 23.2338Z" fill="#FAFAFA"/>
</svg>
